<svg width="203" height="203" viewBox="0 0 203 203" fill="none" xmlns="http://www.w3.org/2000/svg">
<circle cx="101.5" cy="101.5" r="101.5" fill="black"/>
<path fill-rule="evenodd" clip-rule="evenodd" d="M126.356 44.6733C120.881 45.2925 115.204 47.7465 111.032 51.298C109.295 52.7765 98.2846 63.8884 97.8789 64.5725C96.2135 67.3803 96.6865 71.0147 99.0216 73.3521C101.309 75.6416 104.51 76.1103 107.519 74.5961C108.15 74.2789 109.808 72.7273 114.507 68.0599C121.114 61.4975 121.78 60.947 124.3 59.9675C126.115 59.2622 127.555 59.0032 129.674 59.0011C133.523 58.9975 136.864 60.3341 139.605 62.9748C144.786 67.9642 145.56 75.7692 141.462 81.6872C140.914 82.4775 137.167 86.3328 129.482 94.0103C117.445 106.036 117.207 106.249 114.578 107.263C112.511 108.061 111.389 108.272 109.215 108.274C106.844 108.276 105.121 107.904 103.097 106.955C101.726 106.311 100.06 105.212 99.4986 104.579C98.9642 103.977 97.5447 102.992 96.6028 102.57C95.2568 101.967 93.1811 101.883 91.6659 102.371C88.1549 103.501 86.0516 107.106 86.8244 110.67C87.2939 112.836 88.3499 114.259 91.0706 116.391C96.8861 120.948 103.119 122.987 110.4 122.713C114.608 122.555 117.998 121.697 121.854 119.815C124.171 118.684 125.701 117.707 127.541 116.182C128.875 115.076 151.142 92.7653 152.145 91.5298C153.976 89.2733 156.061 85.4758 156.999 82.6868C159.724 74.5851 158.721 65.6258 154.27 58.3071C148.492 48.8067 137.459 43.4178 126.356 44.6733ZM90.9672 80.414C86.3335 80.8815 81.7154 82.5705 77.6001 85.3028C75.7085 86.5587 75.2486 86.9955 63.9796 98.2406C57.565 104.642 51.8321 110.448 51.2397 111.144C46.5023 116.709 43.9326 124.752 44.5966 131.939C44.9469 135.73 45.7967 138.881 47.3475 142.139C51.0671 149.952 58.0642 155.619 66.6729 157.79C70.5918 158.778 76.3986 158.741 80.5055 157.701C84.5745 156.671 88.7799 154.487 92.0732 151.693C92.7683 151.104 95.9454 148.001 99.1333 144.799C104.381 139.528 104.976 138.876 105.422 137.923C106.757 135.064 106.216 131.917 104.011 129.709C101.82 127.516 98.5974 126.976 95.7859 128.33C94.879 128.767 94.048 129.531 88.6764 134.864C82.475 141.021 81.5664 141.8 79.4429 142.782C76.9486 143.936 73.8089 144.385 71.1879 143.963C65.6222 143.068 60.9642 138.917 59.434 133.49C59.1191 132.373 59.0627 131.808 59.0588 129.725C59.0535 127.099 59.1921 126.312 60.0275 124.218C61.0693 121.606 60.9818 121.705 72.8749 109.746C79.0024 103.585 84.4252 98.2256 84.9253 97.8364C86.2139 96.8335 88.2031 95.8164 89.8613 95.3124C91.1535 94.9196 91.5137 94.8801 93.811 94.8777C95.9271 94.8755 96.5412 94.9311 97.5815 95.2194C99.29 95.6927 101.508 96.8312 102.737 97.8659C103.302 98.3411 104.226 99.0848 104.791 99.5184C107.741 101.783 111.716 101.514 114.296 98.8746C117.208 95.8956 117.036 91.4689 113.886 88.3721C108.021 82.6047 99.2935 79.5741 90.9672 80.414Z" fill="#3E92CC"/>
</svg>
