<svg width="142" height="142" viewBox="0 0 142 142" fill="none" xmlns="http://www.w3.org/2000/svg">
<circle cx="71" cy="71" r="71" fill="black"/>
<path fill-rule="evenodd" clip-rule="evenodd" d="M31.1448 42.1359C31.1527 42.2203 31.6928 42.7088 32.3447 43.2219C33.6639 44.2599 45.4404 53.738 52.4956 59.4401C55.0068 61.4697 57.4142 63.406 57.8456 63.7432C58.2769 64.0803 59.8847 65.3671 61.4187 66.6029C62.9526 67.8384 64.7711 69.2988 65.4598 69.8478C67.4927 71.4681 69.048 72.0747 71.4402 72.1799C73.1133 72.2535 73.6855 72.1936 74.8112 71.8268C76.18 71.381 77.433 70.6589 78.639 69.6214C79.0006 69.3102 79.7025 68.7338 80.1985 68.3405C81.0458 67.6687 82.141 66.7862 85.3897 64.1573C86.1357 63.5536 90.8312 59.776 95.8241 55.7629C104.567 48.7354 107.299 46.5362 111.006 43.5423C111.953 42.7775 112.728 42.1136 112.728 42.0673C112.728 42.0207 94.3685 41.9827 71.9292 41.9827C49.4898 41.9827 31.1369 42.0515 31.1448 42.1359ZM114.815 44.8152C112.634 46.6004 95.3254 60.5404 88.689 65.8567C86.7733 67.3914 85.2004 68.7001 85.1935 68.7651C85.1866 68.83 88.8646 71.7263 93.3666 75.2013C97.8687 78.6762 105.029 84.2046 109.279 87.4865L117.006 93.4535L117.149 92.6967C117.346 91.6536 117.361 43.0022 117.164 43.0131C117.077 43.0178 116.02 43.8287 114.815 44.8152ZM27.1653 68.1361C27.1653 81.6215 27.2377 92.655 27.3264 92.655C27.4151 92.655 27.8573 92.3563 28.3093 91.991C28.7613 91.6256 30.7785 90.0571 32.7916 88.5052C42.9758 80.6543 55.0126 71.3636 57.8184 69.1878L58.5249 68.6402L48.7603 60.777C43.3896 56.4523 37.0148 51.3172 34.5936 49.3655C28.1637 44.1828 27.446 43.6173 27.2986 43.6173C27.2254 43.6173 27.1653 54.6508 27.1653 68.1361ZM59.4992 72.2862C58.6311 72.9817 56.8964 74.3323 55.6441 75.2875C54.392 76.2427 51.3424 78.5873 48.8675 80.4978C46.3927 82.4082 41.15 86.4538 37.2172 89.488L30.0669 95.0048L50.9626 95.0569C62.4551 95.0855 81.1948 95.0855 92.6066 95.0569L113.355 95.0048L111.737 93.7651C110.847 93.0835 107.396 90.423 104.067 87.853C85.8757 73.8072 82.4682 71.201 82.2938 71.201C82.1994 71.201 81.4252 71.7543 80.5733 72.4304C75.0823 76.7893 68.6743 76.7617 63.1223 72.355C62.1811 71.608 61.3359 71.0022 61.2441 71.0091C61.1525 71.0159 60.3672 71.5907 59.4992 72.2862Z" fill="#3E92CC"/>
</svg>
