<svg width="142" height="142" viewBox="0 0 142 142" fill="none" xmlns="http://www.w3.org/2000/svg">
<circle cx="71" cy="71" r="71" fill="black"/>
<path fill-rule="evenodd" clip-rule="evenodd" d="M69.4048 26.93C67.3546 27.1784 64.016 28.0866 63.5902 28.5116C62.9844 29.1162 62.993 29.8372 63.6133 30.4563C64.1999 31.0417 64.607 31.0633 66.2178 30.5948C68.4772 29.9378 70.552 29.6876 73.6811 29.6947C79.9716 29.7088 84.9089 31.3123 89.6133 34.8683C90.6977 35.6881 91.7172 36.3589 91.8791 36.3592C92.0411 36.3594 92.4738 36.1019 92.8408 35.7868C93.8645 34.9079 93.5318 34.1946 91.2749 32.4307C87.8244 29.7336 82.8452 27.6625 78.2931 27.0304C76.5295 26.7856 71.1018 26.7244 69.4048 26.93ZM53.1579 35.1755C52.5496 35.5253 51.8625 36.306 50.2493 38.4799L48.9498 40.2315L46.1157 40.3523C41.3918 40.5537 38.3347 41.913 34.9014 45.3377C31.6395 48.5917 30.3242 51.7379 30.199 56.5863L30.1246 59.4721L28.5005 60.9885C25.4562 63.8307 23.316 67.7124 22.1779 72.4555C21.3415 75.9407 21.7501 82.369 22.8892 83.6481C23.4494 84.2768 24.5837 84.2001 25.0419 83.5022C25.3852 82.9793 25.3746 82.7001 24.9268 80.489C24.3146 77.4673 24.3117 76.8275 24.8972 73.956C25.9017 69.0289 27.1884 66.5974 30.6512 63.0817C32.0353 61.6765 33.0676 60.422 33.0861 60.1232C33.1036 59.8376 33.093 58.7044 33.0624 57.6049C32.989 54.9717 33.3818 53.1442 34.5359 50.7491C36.1061 47.4909 39.3192 44.8069 42.9358 43.7317C44.1165 43.3807 45.2958 43.2469 47.206 43.2469C48.6573 43.2469 50.0494 43.1377 50.2993 43.0041C50.5495 42.8706 51.3369 41.9573 52.0494 40.9748C52.7616 39.9922 53.7698 38.7023 54.2893 38.1083C54.8091 37.5142 55.2342 36.7884 55.2342 36.4949C55.2342 35.4028 54.0601 34.6568 53.1579 35.1755ZM94.2711 37.0398C93.6831 37.4316 93.4554 38.2165 93.7573 38.8108C94.1977 39.6783 94.7699 39.9482 95.5721 39.6665C96.515 39.3357 96.8534 38.3247 96.3026 37.4855C95.8881 36.8543 94.8811 36.6332 94.2711 37.0398ZM96.7984 41.2371C96.2119 41.884 96.2696 42.1848 97.4722 44.7513C98.0671 46.0208 98.8099 48.0473 99.1227 49.2546C99.4357 50.4618 99.9192 51.7025 100.197 52.0119C100.476 52.3211 101.591 52.9203 102.675 53.3429C105.831 54.5733 108.351 56.194 110.691 58.4973C113.969 61.7235 115.769 65.1646 116.991 70.5387C117.742 73.8421 117.735 75.5204 116.96 79.1018C115.341 86.5766 110.61 92.757 104.4 95.5109C103.587 95.8715 101.923 96.4525 100.703 96.8018C98.5724 97.4123 98.1544 97.443 90.0564 97.5837C84.9525 97.6723 81.5363 97.8272 81.3968 97.9761C80.8145 98.5976 80.8354 99.3223 81.454 99.9397L82.0743 100.559H89.0159C96.6235 100.559 99.6565 100.262 102.924 99.1973C109.735 96.9781 114.701 92.4348 117.969 85.4326C119.584 81.9735 120.1 79.6653 120.224 75.3465C120.324 71.8758 120.287 71.4874 119.599 68.8014C118.245 63.5085 116.259 59.8568 112.916 56.5108C111.892 55.4858 110.35 54.174 109.49 53.5955C107.963 52.5686 103.177 50.1447 102.663 50.1376C102.52 50.1356 102.105 49.0721 101.739 47.7741C100.926 44.8868 99.3329 41.4201 98.6515 41.056C97.9151 40.6627 97.2613 40.7264 96.7984 41.2371ZM60.344 69.0195C54.7021 74.6568 50.3053 79.2405 50.3053 79.4847C50.3053 80.2094 51.4594 81.1829 52.0962 80.9955C52.3988 80.9062 56.4447 77.0535 61.0872 72.4339L69.528 64.0344V88.7678C69.528 108.182 69.5943 113.586 69.8361 113.893C70.4125 114.625 71.1925 114.662 71.8651 113.991L72.4854 113.372V88.7031V64.0344L80.8029 72.3089C85.3777 76.8597 89.3698 80.7094 89.6749 80.8637C90.5703 81.3165 91.6963 80.5749 91.7044 79.5268C91.7069 79.2028 88.265 75.5981 81.6642 69.0114C73.7688 61.1329 71.4882 58.9892 71.0015 58.9892C70.5148 58.9892 68.2389 61.1309 60.344 69.0195ZM25.1267 86.8354C24.1135 87.6206 24.462 88.6212 26.7882 91.6061C30.1689 95.9436 34.1185 98.6035 39.0363 99.855C40.8716 100.322 41.9675 100.382 50.6143 100.492C59.0526 100.6 60.2348 100.568 60.7617 100.224C61.5676 99.6969 61.7702 98.9462 61.2997 98.2294L60.9167 97.6462L50.9901 97.5466C39.9082 97.4354 39.7268 97.4123 36.1346 95.6523C32.9705 94.102 30.7141 92.0257 27.567 87.7681C26.6973 86.5917 25.8561 86.2702 25.1267 86.8354Z" fill="#3E92CC" stroke="#3E92CC"/>
</svg>
